# xmcd CD database file
#
# Track frame offsets:
#	150
#	34218
#	45764
#	59616
#	75152
#	104850
#	130140
#	155976
#	191511
#	222774
#	243965
#	272491
#	299511
#
# Disc length: 4363 seconds
#
# Revision: 0
# Processed by: cddbd v1.5PL3 Copyright (c) Steve Scherf et al.
# Submitted via: CDex 1.51
#
DISCID=ba11090d
DTITLE=TAGOMAGO - Transonic Archives TAGOMAGO 1996-1998
DYEAR=2000
DGENRE=Electronic
TTITLE0=World Wide Wife
TTITLE1=Hiromi Feeling
TTITLE2=AHH
TTITLE3=India to Watashi
TTITLE4=Gijirenai
TTITLE5=Jazz Effect
TTITLE6=I Do, You Do
TTITLE7=Kogarashi No Etude
TTITLE8=Shonan Rhapsody
TTITLE9=Fallin'down
TTITLE10=Far East
TTITLE11=Summer Time Killer
TTITLE12=H.O
EXTD=YEAR: 2000/12/26
EXTT0=
EXTT1=
EXTT2=
EXTT3=
EXTT4=
EXTT5=
EXTT6=
EXTT7=
EXTT8=
EXTT9=
EXTT10=
EXTT11=
EXTT12=
PLAYORDER=
